<mxfile host="app.diagrams.net" modified="2023-04-26T12:41:31.689Z" agent="Mozilla/5.0 (Windows NT 10.0; Win64; x64) AppleWebKit/537.36 (KHTML, like Gecko) Chrome/112.0.0.0 Safari/537.36" etag="QtvocQIdDgx3cyFLGckL" version="21.2.2" type="google">
  <diagram name="Pagina-1" id="CCRoJt0zkChh8KfRuEvz">
    <mxGraphModel grid="1" page="1" gridSize="10" guides="1" tooltips="1" connect="1" arrows="1" fold="1" pageScale="1" pageWidth="827" pageHeight="1169" math="0" shadow="0">
      <root>
        <mxCell id="0" />
        <mxCell id="1" parent="0" />
        <mxCell id="dIc80ZALFH3i95e-zvGc-2" value="Start" style="ellipse;whiteSpace=wrap;html=1;" vertex="1" parent="1">
          <mxGeometry x="320" width="120" height="70" as="geometry" />
        </mxCell>
        <mxCell id="Z3gchRj4s2AE-QGKv4Ti-2" value="" style="edgeStyle=orthogonalEdgeStyle;rounded=0;orthogonalLoop=1;jettySize=auto;html=1;" edge="1" parent="1" source="dIc80ZALFH3i95e-zvGc-3" target="Z3gchRj4s2AE-QGKv4Ti-1">
          <mxGeometry relative="1" as="geometry" />
        </mxCell>
        <mxCell id="dIc80ZALFH3i95e-zvGc-3" value="return result" style="shape=parallelogram;perimeter=parallelogramPerimeter;whiteSpace=wrap;html=1;fixedSize=1;" vertex="1" parent="1">
          <mxGeometry x="273.5" y="835" width="220" height="60" as="geometry" />
        </mxCell>
        <mxCell id="dIc80ZALFH3i95e-zvGc-13" value="" style="edgeStyle=orthogonalEdgeStyle;rounded=0;orthogonalLoop=1;jettySize=auto;html=1;" edge="1" parent="1" source="dIc80ZALFH3i95e-zvGc-5" target="dIc80ZALFH3i95e-zvGc-9">
          <mxGeometry relative="1" as="geometry" />
        </mxCell>
        <mxCell id="dIc80ZALFH3i95e-zvGc-5" value="Random rnd = newRandom()" style="rounded=0;whiteSpace=wrap;html=1;" vertex="1" parent="1">
          <mxGeometry x="320" y="160" width="120" height="60" as="geometry" />
        </mxCell>
        <mxCell id="Z3gchRj4s2AE-QGKv4Ti-12" value="" style="edgeStyle=orthogonalEdgeStyle;rounded=0;orthogonalLoop=1;jettySize=auto;html=1;" edge="1" parent="1" source="dIc80ZALFH3i95e-zvGc-8" target="Z3gchRj4s2AE-QGKv4Ti-5">
          <mxGeometry relative="1" as="geometry" />
        </mxCell>
        <mxCell id="dIc80ZALFH3i95e-zvGc-8" value="numeroCasuale =rnd.nextInt(0,mazzo.length-1)" style="rounded=0;whiteSpace=wrap;html=1;" vertex="1" parent="1">
          <mxGeometry x="280" y="330" width="200" height="60" as="geometry" />
        </mxCell>
        <mxCell id="dIc80ZALFH3i95e-zvGc-14" value="" style="edgeStyle=orthogonalEdgeStyle;rounded=0;orthogonalLoop=1;jettySize=auto;html=1;" edge="1" parent="1" source="dIc80ZALFH3i95e-zvGc-9" target="dIc80ZALFH3i95e-zvGc-8">
          <mxGeometry relative="1" as="geometry" />
        </mxCell>
        <mxCell id="dIc80ZALFH3i95e-zvGc-9" value="int numeroCasuale = 0;" style="rounded=0;whiteSpace=wrap;html=1;" vertex="1" parent="1">
          <mxGeometry x="320" y="240" width="120" height="60" as="geometry" />
        </mxCell>
        <mxCell id="Z3gchRj4s2AE-QGKv4Ti-1" value="end" style="ellipse;whiteSpace=wrap;html=1;" vertex="1" parent="1">
          <mxGeometry x="323.5" y="925" width="120" height="80" as="geometry" />
        </mxCell>
        <mxCell id="Z3gchRj4s2AE-QGKv4Ti-3" value="&lt;div&gt;pescaCarta&lt;/div&gt;&lt;div&gt;&lt;br&gt;&lt;/div&gt;" style="text;html=1;align=center;verticalAlign=middle;resizable=0;points=[];autosize=1;strokeColor=none;fillColor=none;" vertex="1" parent="1">
          <mxGeometry x="20" y="23" width="80" height="40" as="geometry" />
        </mxCell>
        <mxCell id="7meeDspETqWVwedKvsWI-6" value="FALSE" style="edgeStyle=orthogonalEdgeStyle;rounded=0;orthogonalLoop=1;jettySize=auto;html=1;entryX=0.473;entryY=-0.002;entryDx=0;entryDy=0;entryPerimeter=0;exitX=0;exitY=0.5;exitDx=0;exitDy=0;" edge="1" parent="1" source="Z3gchRj4s2AE-QGKv4Ti-5" target="7meeDspETqWVwedKvsWI-5">
          <mxGeometry relative="1" as="geometry" />
        </mxCell>
        <mxCell id="7meeDspETqWVwedKvsWI-9" value="TRUE" style="edgeStyle=orthogonalEdgeStyle;rounded=0;orthogonalLoop=1;jettySize=auto;html=1;entryX=0.5;entryY=0;entryDx=0;entryDy=0;" edge="1" parent="1" source="Z3gchRj4s2AE-QGKv4Ti-5" target="Z3gchRj4s2AE-QGKv4Ti-9">
          <mxGeometry relative="1" as="geometry" />
        </mxCell>
        <mxCell id="Z3gchRj4s2AE-QGKv4Ti-5" value="&lt;div&gt;if this.carte[numeroCasuale].pescata&lt;/div&gt;&lt;div&gt;==true&lt;br&gt;&lt;/div&gt;" style="rhombus;whiteSpace=wrap;html=1;" vertex="1" parent="1">
          <mxGeometry x="260" y="410" width="240" height="140" as="geometry" />
        </mxCell>
        <mxCell id="7meeDspETqWVwedKvsWI-2" value="" style="edgeStyle=orthogonalEdgeStyle;rounded=0;orthogonalLoop=1;jettySize=auto;html=1;" edge="1" parent="1" source="Z3gchRj4s2AE-QGKv4Ti-7" target="7meeDspETqWVwedKvsWI-1">
          <mxGeometry relative="1" as="geometry" />
        </mxCell>
        <mxCell id="Z3gchRj4s2AE-QGKv4Ti-7" value="" style="ellipse;whiteSpace=wrap;html=1;aspect=fixed;" vertex="1" parent="1">
          <mxGeometry x="343.5" y="625" width="80" height="80" as="geometry" />
        </mxCell>
        <mxCell id="7meeDspETqWVwedKvsWI-8" style="edgeStyle=orthogonalEdgeStyle;rounded=0;orthogonalLoop=1;jettySize=auto;html=1;entryX=1;entryY=0.5;entryDx=0;entryDy=0;exitX=0.5;exitY=1;exitDx=0;exitDy=0;" edge="1" parent="1" source="Z3gchRj4s2AE-QGKv4Ti-9" target="Z3gchRj4s2AE-QGKv4Ti-7">
          <mxGeometry relative="1" as="geometry" />
        </mxCell>
        <mxCell id="Z3gchRj4s2AE-QGKv4Ti-9" value="result = pescaCarta();" style="rounded=0;whiteSpace=wrap;html=1;" vertex="1" parent="1">
          <mxGeometry x="520" y="550" width="120" height="60" as="geometry" />
        </mxCell>
        <mxCell id="7meeDspETqWVwedKvsWI-3" value="" style="edgeStyle=orthogonalEdgeStyle;rounded=0;orthogonalLoop=1;jettySize=auto;html=1;" edge="1" parent="1" source="7meeDspETqWVwedKvsWI-1" target="dIc80ZALFH3i95e-zvGc-3">
          <mxGeometry relative="1" as="geometry" />
        </mxCell>
        <mxCell id="7meeDspETqWVwedKvsWI-1" value="this.carta[numeroCasuale].pescata=true" style="whiteSpace=wrap;html=1;" vertex="1" parent="1">
          <mxGeometry x="270.5" y="742" width="226.5" height="60" as="geometry" />
        </mxCell>
        <mxCell id="7meeDspETqWVwedKvsWI-4" value="Carta result ;" style="rounded=0;whiteSpace=wrap;html=1;" vertex="1" parent="1">
          <mxGeometry x="320" y="90" width="120" height="60" as="geometry" />
        </mxCell>
        <mxCell id="7meeDspETqWVwedKvsWI-7" style="edgeStyle=orthogonalEdgeStyle;rounded=0;orthogonalLoop=1;jettySize=auto;html=1;entryX=0;entryY=0.5;entryDx=0;entryDy=0;exitX=0.5;exitY=1;exitDx=0;exitDy=0;" edge="1" parent="1" source="7meeDspETqWVwedKvsWI-5" target="Z3gchRj4s2AE-QGKv4Ti-7">
          <mxGeometry relative="1" as="geometry" />
        </mxCell>
        <mxCell id="7meeDspETqWVwedKvsWI-5" value="result = this.carte[numeroCasuale]" style="rounded=0;whiteSpace=wrap;html=1;" vertex="1" parent="1">
          <mxGeometry x="80" y="550" width="190.5" height="60" as="geometry" />
        </mxCell>
      </root>
    </mxGraphModel>
  </diagram>
</mxfile>
